<svg xmlns="http://www.w3.org/2000/svg" viewBox="0 0 300 108"><defs><style>.cls-1{fill:#acccca;}.cls-2{fill:#838962;}.cls-10,.cls-11,.cls-12,.cls-13,.cls-3,.cls-4,.cls-5{fill:none;}.cls-3,.cls-4,.cls-5{stroke:#bca991;stroke-width:1.05px;}.cls-10,.cls-11,.cls-12,.cls-13,.cls-14,.cls-3,.cls-4,.cls-5{stroke-miterlimit:10;}.cls-4{stroke-dasharray:5.46 5.46;}.cls-5{stroke-dasharray:5.18 5.18;}.cls-6{fill:#c6aa81;}.cls-7{fill:#4b521f;}.cls-8{fill:#51726f;}.cls-9{fill:#b45f28;}.cls-10,.cls-11,.cls-12,.cls-13{stroke:#fefffd;}.cls-11{stroke-width:0.47px;}.cls-12{stroke-width:0.25px;}.cls-13{stroke-width:0.5px;}.cls-14{fill:#ad5050;stroke:#6c8c8a;stroke-width:2px;}.cls-15{fill:#6b563a;}.cls-16{fill:#ffa17d;}.cls-17{fill:#fffdb3;}.cls-18{fill:#40525b;}.cls-19{fill:#d1d3d4;}.cls-20{fill:#bcbec0;}.cls-21{fill:#efd9a7;}</style></defs><g id="camp"><rect id="sky" class="cls-1" x="-0.18" y="-0.12" width="300.21" height="87.45"/><path id="ground" class="cls-2" d="M.05,58.12s56.64-8.42,116.37,9.79C162.58,82,207.24,85.24,258.48,77.18c1-.15,1.93-.33,2.88-.55,29.59-6.69,38.73-13,38.73-13v44.42l-300-.2Z"/><g id="path1"><line class="cls-3" x1="135.21" y1="107.94" x2="132.66" y2="107.37"/><path class="cls-4" d="M127.33,106.18,97.6,99.54c-14.34-6.93-24.45-10.21-30.07-11.7"/><path class="cls-3" d="M64.88,87.18c-1.7-.38-2.56-.5-2.56-.5"/></g><g id="path2"><path class="cls-3" d="M200.78,107.92a8.19,8.19,0,0,1,2.47-.84"/><path class="cls-5" d="M208.33,106.09c4.23-.67,10.76-1.45,20.81-2.19,43.61-3.21,54.3-19.81,66-20.41"/><path class="cls-3" d="M297.76,83.63a14.07,14.07,0,0,1,2.53.65"/></g><path id="table" class="cls-6" d="M172.32,91h-7.79L159,83h3.67V81H145.43v2h3.68L143.57,91h-7.79v2h6.39L139,97.47l1.64,1.14,4-5.65h18.87l4,5.65,1.64-1.14L165.92,93h6.4ZM146,91,151.55,83h5L162.09,91Z"/><path id="tree2" class="cls-7" d="M151.26,62.81l.71-2.07c-.47-.17-11.59-4.12-11.59-15.05h0V43.56C144,50,151.17,52.47,151.26,52.5l.71-2.07c-.47-.17-11.59-4.12-11.59-15h0V34.12h-2.2v1.93C138,46.76,127,50.66,126.57,50.82l.71,2.08c.1,0,7.17-2.54,10.87-8.88v2.34C138,57.07,127,61,126.57,61.13l.71,2.08c.1,0,7.17-2.54,10.87-8.88V58C138,68.67,127,72.56,126.57,72.73l.71,2.07c.1,0,7.17-2.53,10.87-8.87V84.25h2.2V65.47c3.69,6.39,10.82,8.91,10.91,8.94l.71-2.08c-.47-.16-11.59-4.11-11.59-15h0V53.87C144,60.26,151.17,62.78,151.26,62.81Z"/><path id="tree1" class="cls-7" d="M130.87,68.65l.58-1.71c-.39-.13-9.54-3.39-9.54-12.39h0V52.8a18.47,18.47,0,0,0,9,7.36l.58-1.71c-.39-.13-9.54-3.39-9.54-12.39h0V45h-1.81v1.59c-.15,8.82-9.14,12-9.53,12.16l.59,1.71c.07,0,5.9-2.09,8.94-7.31V55.1c-.15,8.82-9.14,12-9.53,12.16l.59,1.71a18.46,18.46,0,0,0,8.94-7.3v3c-.15,8.82-9.14,12-9.53,12.16l.59,1.71a18.46,18.46,0,0,0,8.94-7.3V86.3h1.81V70.84c3,5.26,8.91,7.33,9,7.36l.58-1.71c-.39-.13-9.54-3.39-9.54-12.39h0V61.29C124.92,66.55,130.79,68.62,130.87,68.65Z"/><path id="tree3" class="cls-7" d="M296,54.37l.75-2.18c-.5-.17-12.14-4.31-12.14-15.75h0V34.2c3.86,6.7,11.32,9.34,11.42,9.37l.75-2.18c-.5-.17-12.14-4.31-12.14-15.75h0V24.32h-2.3v2c-.2,11.22-11.64,15.3-12.13,15.47l.74,2.17c.1,0,7.51-2.65,11.39-9.29v2.45c-.2,11.22-11.64,15.29-12.13,15.46l.74,2.18c.1,0,7.51-2.66,11.39-9.29v3.79c-.2,11.22-11.64,15.3-12.13,15.47l.74,2.17c.1,0,7.51-2.65,11.39-9.29V76.81h2.3V57.14c3.86,6.7,11.32,9.34,11.42,9.37l.75-2.17c-.5-.17-12.14-4.32-12.14-15.76h0V45C288.42,51.69,295.88,54.33,296,54.37Z"/><path id="lake" class="cls-8" d="M180.9,80.58s71.07,23,95.15-7.84C276.05,72.74,249.13,83.92,180.9,80.58Z"/><g id="canoe"><path class="cls-9" d="M255.23,75.89a11.42,11.42,0,0,0-3.55-2.66.56.56,0,0,0-.13,0c-.37.76-.72,1.53-1.11,2.28a1.55,1.55,0,0,1-.52.59,9.52,9.52,0,0,1-3.64,1.26,44.81,44.81,0,0,1-6.44.58,73.54,73.54,0,0,1-10.91-.24,11.55,11.55,0,0,1-3.85-1,1.84,1.84,0,0,1-.91-.87c-.33-.73-.73-1.43-1.13-2.19l-1,.59a9.2,9.2,0,0,0-2.78,2.52,2.89,2.89,0,0,0-.38,2.75A5.87,5.87,0,0,0,221,82a2,2,0,0,0,.91.35,128.46,128.46,0,0,0,13.86.76,124.63,124.63,0,0,0,16.61-1.17,2.68,2.68,0,0,0,1.27-.32,9.21,9.21,0,0,0,1.68-1.68A3,3,0,0,0,255.23,75.89Z"/><path class="cls-9" d="M232.91,77a85.67,85.67,0,0,1,10.26-.09,11,11,0,0,0,5.79-1l-23.22.37a11.17,11.17,0,0,0,4.49.92C231.12,77.2,232,77.06,232.91,77Z"/></g><g id="stars"><line class="cls-10" x1="181.37" y1="26.91" x2="181.37" y2="31.9"/><line class="cls-10" x1="183.87" y1="29.4" x2="178.87" y2="29.4"/><line class="cls-11" x1="156.32" y1="22.28" x2="156.32" y2="27.28"/><line class="cls-11" x1="158.82" y1="24.78" x2="153.82" y2="24.78"/><line class="cls-11" x1="143.43" y1="44.42" x2="143.43" y2="49.41"/><line class="cls-11" x1="145.93" y1="46.91" x2="140.93" y2="46.91"/><line class="cls-12" x1="69.63" y1="6.19" x2="69.63" y2="11.18"/><line class="cls-12" x1="72.13" y1="8.68" x2="67.14" y2="8.68"/><line class="cls-11" x1="89.44" y1="16.69" x2="89.44" y2="21.68"/><line class="cls-11" x1="91.94" y1="19.19" x2="86.94" y2="19.19"/><line class="cls-11" x1="181.86" y1="2.1" x2="181.86" y2="7.09"/><line class="cls-11" x1="184.35" y1="4.6" x2="179.36" y2="4.6"/><line class="cls-12" x1="230.49" y1="35.66" x2="230.49" y2="40.65"/><line class="cls-12" x1="232.99" y1="38.16" x2="228" y2="38.16"/><line class="cls-12" x1="74.86" y1="13" x2="74.86" y2="17.99"/><line class="cls-12" x1="77.36" y1="15.49" x2="72.37" y2="15.49"/><line class="cls-12" x1="225.71" y1="45.04" x2="225.71" y2="50.03"/><line class="cls-12" x1="228.2" y1="47.53" x2="223.21" y2="47.53"/><line class="cls-11" x1="41.02" y1="11.18" x2="41.02" y2="16.18"/><line class="cls-11" x1="43.52" y1="13.68" x2="38.53" y2="13.68"/><line class="cls-11" x1="63.73" y1="35.25" x2="63.73" y2="40.25"/><line class="cls-11" x1="66.23" y1="37.75" x2="61.23" y2="37.75"/><line class="cls-11" x1="8.33" y1="35.25" x2="8.33" y2="40.25"/><line class="cls-11" x1="10.82" y1="37.75" x2="5.83" y2="37.75"/></g><path id="shoot1" class="cls-13" d="M140.5,13.85S123,18,112.82,28.9"/><path id="shoot2" class="cls-13" d="M142.46,16.22a48.49,48.49,0,0,0-20.38,9.08"/><g id="mainstar"><line class="cls-10" x1="146.05" y1="10.16" x2="146.05" y2="15.15"/><line class="cls-10" x1="148.55" y1="12.66" x2="143.56" y2="12.66"/></g><g id="tent"><path class="cls-14" d="M80.57,49.31S79,62.58,69.69,71.87l24.1,10.06s6.69.21,13.64-25.28a.42.42,0,0,0-.3-.53Z"/><path class="cls-14" d="M105.7,83.25l1.84-26.54a.06.06,0,0,0-.11,0c-.88,3.3-6.38,23-13.64,25.23C93.79,81.93,98.55,85,105.7,83.25Z"/><path class="cls-14" d="M129,79.36c-2.31,1-9.21,4.48-18.42,3.25a243.45,243.45,0,0,0-3-25.89c0-.12.17-.17.23-.06,1.67,3.1,10.34,21.88,21.14,22.43A.14.14,0,0,1,129,79.36Z"/></g><polygon id="logs-2" data-name="logs" class="cls-15" points="178.51 94.02 170.65 90.25 177.74 85.47 176.62 83.81 168.55 89.25 159.09 84.72 158.22 86.53 166.63 90.55 157.16 96.93 158.28 98.59 168.72 91.55 177.65 95.82 178.51 94.02"/><g id="fire"><path class="cls-16" d="M164.11,82s-4.53-3.62-.92-9.47c2.55-3.1,3.6-2.19,5-7.84,0,0,6.24,5.48,2.37,12.17,0,0,1.33-.37,2.07-2.61,0,0,3,4.34-.88,7.77S164.11,82,164.11,82Z"/><path class="cls-17" d="M164.94,81.49s-2.43-5,3-8.61a8.53,8.53,0,0,0,.59,5.05,5.23,5.23,0,0,1,.19,3.2s1.14-.35,1.49-2.54a4.08,4.08,0,0,1,.7,2.93C170.65,83.28,166.39,84.65,164.94,81.49Z"/></g><path id="tree4" class="cls-18" d="M35.68,43.86,36.33,42c-.44-.15-10.66-3.78-10.66-13.83h0v-2c3.39,5.87,10,8.19,10,8.22l.65-1.91c-.44-.15-10.66-3.79-10.66-13.83h0V17.47h-2v1.78C23.45,29.1,13.4,32.68,13,32.83l.65,1.91c.09,0,6.6-2.33,10-8.16v2.15C23.45,38.58,13.4,42.17,13,42.31l.65,1.91c.09,0,6.6-2.33,10-8.15V39.4C23.45,49.25,13.4,52.83,13,53l.65,1.91c.09,0,6.6-2.33,10-8.16V63.57h2V46.3c3.39,5.88,10,8.2,10,8.23l.65-1.91c-.44-.15-10.66-3.79-10.66-13.84h0V35.64C29,41.52,35.59,43.83,35.68,43.86Z"/><path id="tree5" class="cls-18" d="M55.53,58.1l.66-1.91c-.44-.15-10.66-3.78-10.66-13.83h0v-2c3.39,5.87,10,8.19,10,8.22l.66-1.91c-.44-.15-10.66-3.79-10.66-13.84h0V31.71h-2v1.78c-.17,9.85-10.22,13.43-10.65,13.58L33.48,49c.09,0,6.6-2.33,10-8.16V43c-.17,9.85-10.22,13.43-10.65,13.58l.65,1.91c.09,0,6.6-2.33,10-8.16v3.34c-.17,9.85-10.22,13.43-10.65,13.58l.65,1.91c.09,0,6.6-2.33,10-8.16V77.81h2V60.54c3.39,5.88,10,8.2,10,8.23l.66-1.91c-.44-.15-10.66-3.79-10.66-13.84h0V49.88C48.89,55.76,55.45,58.07,55.53,58.1Z"/><path id="tree6" class="cls-18" d="M222.22,68.19l.84-2.45c-.56-.19-13.64-4.85-13.64-17.71h0v-2.5c4.34,7.52,12.73,10.48,12.84,10.52l.84-2.44c-.56-.19-13.64-4.85-13.64-17.71h0V34.41h-2.59v2.28c-.22,12.61-13.07,17.19-13.63,17.38l.84,2.44c.11,0,8.44-3,12.79-10.44v2.75C206.57,61.43,193.72,66,193.16,66.2l.84,2.45c.11,0,8.44-3,12.79-10.44v4.26c-.22,12.61-13.07,17.19-13.63,17.38L194,82.3c.11,0,8.44-3,12.79-10.44V93.41h2.59V71.31c4.34,7.52,12.73,10.49,12.84,10.53l.84-2.45c-.56-.19-13.64-4.85-13.64-17.71h0v-4C213.72,65.18,222.11,68.15,222.22,68.19Z"/><path id="moon" class="cls-19" d="M246.39.13A53.47,53.47,0,0,0,218.44,8a53.66,53.66,0,0,1,2.61,93.1A53.66,53.66,0,1,0,246.39.13Z"/><g id="mooncraters"><ellipse class="cls-20" cx="255.18" cy="16.69" rx="7.9" ry="9.24"/><ellipse class="cls-20" cx="273.25" cy="18.19" rx="6.85" ry="5.06" transform="translate(-0.59 20.51) rotate(-4.29)"/><ellipse class="cls-20" cx="256.84" cy="37.33" rx="6" ry="8.34" transform="translate(-2.07 19.33) rotate(-4.29)"/><ellipse class="cls-20" cx="283.07" cy="72.12" rx="10.26" ry="6.95" transform="translate(79.08 281.2) rotate(-60)"/><ellipse class="cls-20" cx="266.27" cy="89.34" rx="9.95" ry="6.95" transform="translate(-3.48 11.13) rotate(-2.38)"/></g><circle id="sun" class="cls-21" cx="54" cy="54" r="54"/></g></svg>