<svg xmlns="http://www.w3.org/2000/svg" viewBox="0 0 300 108"><defs><style>.cls-1{fill:#1b80ae;}.cls-2{fill:#1d164a;}.cls-3{fill:#202f68;}.cls-4{fill:#ce762c;stroke:#266586;}.cls-10,.cls-11,.cls-4,.cls-5,.cls-8,.cls-9{stroke-miterlimit:10;}.cls-4,.cls-5{stroke-width:2px;}.cls-10,.cls-11,.cls-5,.cls-8,.cls-9{fill:none;}.cls-5{stroke:#494e6c;}.cls-6{fill:#ffa17d;}.cls-7{fill:#fffdb3;}.cls-10,.cls-11,.cls-8,.cls-9{stroke:#fefffd;}.cls-9{stroke-width:0.47px;}.cls-10{stroke-width:0.25px;}.cls-11{stroke-width:0.5px;}</style></defs><g id="night"><rect id="sky" class="cls-1" x="-4.42" y="-4.43" width="309.54" height="91.76"/><path id="ground" class="cls-2" d="M-4.18,58.86s60.87-9.16,120.6,9c46.6,14.21,92.25,20.5,143.51,9C316.52,64.3,322,45.6,322,45.6l3.62,73.56H-6Z"/><path id="tree1" class="cls-3" d="M35.68,43.86,36.33,42c-.44-.15-10.66-3.78-10.66-13.83h0v-2c3.39,5.87,10,8.19,10,8.22l.65-1.91c-.44-.15-10.66-3.79-10.66-13.83h0V17.47h-2v1.78C23.45,29.1,13.4,32.68,13,32.83l.65,1.91c.09,0,6.6-2.33,10-8.16v2.15C23.45,38.58,13.4,42.17,13,42.31l.65,1.91c.09,0,6.6-2.33,10-8.15V39.4C23.45,49.25,13.4,52.83,13,53l.65,1.91c.09,0,6.6-2.33,10-8.16V63.57h2V46.3c3.39,5.88,10,8.2,10,8.23l.65-1.91c-.44-.15-10.66-3.79-10.66-13.84h0V35.64C29,41.52,35.59,43.83,35.68,43.86Z"/><path id="tree2" class="cls-3" d="M55.53,58.1l.66-1.91c-.44-.15-10.66-3.78-10.66-13.83h0v-2c3.39,5.87,10,8.19,10,8.22l.66-1.91c-.44-.15-10.66-3.79-10.66-13.84h0V31.71h-2v1.78c-.17,9.85-10.22,13.43-10.65,13.58L33.48,49c.09,0,6.6-2.33,10-8.16V43c-.17,9.85-10.22,13.43-10.65,13.58l.65,1.91c.09,0,6.6-2.33,10-8.16v3.34c-.17,9.85-10.22,13.43-10.65,13.58l.65,1.91c.09,0,6.6-2.33,10-8.16V77.81h2V60.54c3.39,5.88,10,8.2,10,8.23l.66-1.91c-.44-.15-10.66-3.79-10.66-13.84h0V49.88C48.89,55.76,55.45,58.07,55.53,58.1Z"/><path id="tree3" class="cls-3" d="M222.22,68.19l.84-2.45c-.56-.19-13.64-4.85-13.64-17.71h0v-2.5c4.34,7.52,12.73,10.48,12.84,10.52l.84-2.44c-.56-.19-13.64-4.85-13.64-17.71h0V34.41h-2.59v2.28c-.22,12.61-13.07,17.19-13.63,17.38l.84,2.44c.11,0,8.44-3,12.79-10.44v2.75C206.57,61.43,193.72,66,193.16,66.2l.84,2.45c.11,0,8.44-3,12.79-10.44v4.26c-.22,12.61-13.07,17.19-13.63,17.38L194,82.3c.11,0,8.44-3,12.79-10.44V93.41h2.59V71.31c4.34,7.52,12.73,10.49,12.84,10.53l.84-2.45c-.56-.19-13.64-4.85-13.64-17.71h0v-4C213.72,65.18,222.11,68.15,222.22,68.19Z"/><g id="tent"><path class="cls-4" d="M80.57,49.31S79,62.58,69.69,71.87l24.1,10.06s6.69.21,13.64-25.28a.42.42,0,0,0-.3-.53Z"/><path class="cls-4" d="M105.7,83.25l1.84-26.54a.06.06,0,0,0-.11,0c-.88,3.3-6.38,23-13.64,25.23C93.79,81.93,98.55,85,105.7,83.25Z"/><path class="cls-4" d="M129,79.36c-2.31,1-9.21,4.48-18.42,3.25a243.45,243.45,0,0,0-3-25.89c0-.12.17-.17.23-.06,1.67,3.1,10.34,21.88,21.14,22.43A.14.14,0,0,1,129,79.36Z"/></g><g id="fire"><line class="cls-5" x1="158.66" y1="85.62" x2="178.08" y2="94.92"/><line class="cls-5" x1="177.18" y1="84.64" x2="157.72" y2="97.76"/><path class="cls-6" d="M164.11,82s-4.53-3.62-.92-9.47c2.55-3.1,3.6-2.19,5-7.84,0,0,6.24,5.48,2.37,12.17,0,0,1.33-.37,2.07-2.61,0,0,3,4.34-.88,7.77S164.11,82,164.11,82Z"/><path class="cls-7" d="M164.94,81.49s-2.43-5,3-8.61a8.53,8.53,0,0,0,.59,5.05,5.23,5.23,0,0,1,.19,3.2s1.14-.35,1.49-2.54a4.08,4.08,0,0,1,.7,2.93C170.65,83.28,166.39,84.65,164.94,81.49Z"/></g><g id="stars"><line class="cls-8" x1="181.37" y1="26.91" x2="181.37" y2="31.9"/><line class="cls-8" x1="183.87" y1="29.4" x2="178.87" y2="29.4"/><line class="cls-9" x1="156.32" y1="22.28" x2="156.32" y2="27.28"/><line class="cls-9" x1="158.82" y1="24.78" x2="153.82" y2="24.78"/><line class="cls-9" x1="143.43" y1="44.42" x2="143.43" y2="49.41"/><line class="cls-9" x1="145.93" y1="46.91" x2="140.93" y2="46.91"/><line class="cls-8" x1="146.05" y1="10.16" x2="146.05" y2="15.15"/><line class="cls-8" x1="148.55" y1="12.66" x2="143.56" y2="12.66"/><line class="cls-10" x1="69.63" y1="6.19" x2="69.63" y2="11.18"/><line class="cls-10" x1="72.13" y1="8.68" x2="67.14" y2="8.68"/><line class="cls-9" x1="89.44" y1="16.69" x2="89.44" y2="21.68"/><line class="cls-9" x1="91.94" y1="19.19" x2="86.94" y2="19.19"/><line class="cls-9" x1="181.86" y1="2.1" x2="181.86" y2="7.09"/><line class="cls-9" x1="184.35" y1="4.6" x2="179.36" y2="4.6"/><line class="cls-10" x1="230.49" y1="35.66" x2="230.49" y2="40.65"/><line class="cls-10" x1="232.99" y1="38.16" x2="228" y2="38.16"/><line class="cls-10" x1="74.86" y1="13" x2="74.86" y2="17.99"/><line class="cls-10" x1="77.36" y1="15.49" x2="72.37" y2="15.49"/><line class="cls-10" x1="225.71" y1="45.04" x2="225.71" y2="50.03"/><line class="cls-10" x1="228.2" y1="47.53" x2="223.21" y2="47.53"/><line class="cls-9" x1="41.02" y1="11.18" x2="41.02" y2="16.18"/><line class="cls-9" x1="43.52" y1="13.68" x2="38.53" y2="13.68"/><line class="cls-9" x1="63.73" y1="35.25" x2="63.73" y2="40.25"/><line class="cls-9" x1="66.23" y1="37.75" x2="61.23" y2="37.75"/><line class="cls-9" x1="8.33" y1="35.25" x2="8.33" y2="40.25"/><line class="cls-9" x1="10.82" y1="37.75" x2="5.83" y2="37.75"/></g><path id="shoot1" class="cls-11" d="M140.5,13.85S123,18,112.82,28.9"/><path id="shoot2" class="cls-11" d="M142.46,16.22a48.49,48.49,0,0,0-20.38,9.08"/></g></svg>